<svg width="160" height="195" viewBox="0 0 160 195" fill="none" xmlns="http://www.w3.org/2000/svg">
<mask id="path-1-inside-1_52_70" fill="white">
<path d="M6.96 16.185L80 0L153.04 16.185C155.014 16.6225 156.779 17.7181 158.045 19.2909C159.31 20.8636 160 22.8196 160 24.8359V113.357C159.999 122.112 157.831 130.731 153.688 138.45C149.545 146.169 143.554 152.748 136.249 157.604L80 195L23.7511 157.604C16.4469 152.749 10.4574 146.171 6.3142 138.454C2.17098 130.737 0.00210091 122.119 0 113.366V24.8359C0.000346999 22.8196 0.690114 20.8636 1.95546 19.2909C3.22081 17.7181 4.98611 16.6225 6.96 16.185Z"/>
</mask>
<path d="M6.96 16.185L80 0L153.04 16.185C155.014 16.6225 156.779 17.7181 158.045 19.2909C159.31 20.8636 160 22.8196 160 24.8359V113.357C159.999 122.112 157.831 130.731 153.688 138.45C149.545 146.169 143.554 152.748 136.249 157.604L80 195L23.7511 157.604C16.4469 152.749 10.4574 146.171 6.3142 138.454C2.17098 130.737 0.00210091 122.119 0 113.366V24.8359C0.000346999 22.8196 0.690114 20.8636 1.95546 19.2909C3.22081 17.7181 4.98611 16.6225 6.96 16.185Z" fill="black"/>
<path d="M6.96 16.185L6.31097 13.256L6.31076 13.2561L6.96 16.185ZM80 0L80.649 -2.92895L80 -3.07277L79.351 -2.92895L80 0ZM153.04 16.185L153.689 13.2561L153.689 13.256L153.04 16.185ZM160 24.8359H163V24.8354L160 24.8359ZM160 113.357L163 113.357V113.357H160ZM136.249 157.604L134.588 155.106L134.588 155.106L136.249 157.604ZM80 195L78.3391 197.498L80 198.602L81.6609 197.498L80 195ZM23.7511 157.604L25.412 155.106L25.4118 155.106L23.7511 157.604ZM0 113.366H-3V113.367L0 113.366ZM0 24.8359L-3 24.8354V24.8359H0ZM7.60903 19.114L80.649 2.92895L79.351 -2.92895L6.31097 13.256L7.60903 19.114ZM79.351 2.92895L152.391 19.114L153.689 13.256L80.649 -2.92895L79.351 2.92895ZM152.391 19.1139C153.7 19.4042 154.87 20.1307 155.707 21.1714L160.382 17.4103C158.689 15.3055 156.327 13.8409 153.689 13.2561L152.391 19.1139ZM155.707 21.1714C156.544 22.212 157 23.5048 157 24.8364L163 24.8354C163 22.1343 162.075 19.5153 160.382 17.4103L155.707 21.1714ZM157 24.8359V113.357H163V24.8359H157ZM157 113.357C156.999 121.616 154.954 129.748 151.045 137.031L156.331 139.869C160.708 131.714 162.999 122.608 163 113.357L157 113.357ZM151.045 137.031C147.135 144.314 141.483 150.523 134.588 155.106L137.91 160.103C145.626 154.974 151.954 148.024 156.331 139.869L151.045 137.031ZM134.588 155.106L78.3391 192.502L81.6609 197.498L137.91 160.103L134.588 155.106ZM81.6609 192.502L25.412 155.106L22.0902 160.103L78.3391 197.498L81.6609 192.502ZM25.4118 155.106C18.5184 150.524 12.8666 144.316 8.95735 137.035L3.67106 139.873C8.04824 148.026 14.3754 154.974 22.0904 160.103L25.4118 155.106ZM8.95735 137.035C5.04811 129.754 3.00198 121.623 3 113.365L-3 113.367C-2.99778 122.615 -0.70615 131.72 3.67106 139.873L8.95735 137.035ZM3 113.366V24.8359H-3V113.366H3ZM3 24.8364C3.00023 23.5048 3.4557 22.212 4.29288 21.1714L-0.38196 17.4103C-2.07548 19.5153 -2.99954 22.1344 -3 24.8354L3 24.8364ZM4.29288 21.1714C5.1302 20.1307 6.29967 19.4042 7.60924 19.1139L6.31076 13.2561C3.67255 13.8409 1.31142 15.3055 -0.38196 17.4103L4.29288 21.1714Z" fill="black" mask="url(#path-1-inside-1_52_70)"/>
<mask id="path-3-inside-2_52_70" fill="white">
<path d="M60.2502 50.9961H45.2497V78.7461L45.25 79.7461L45.2502 80.7461L45.2574 80.8711L45.2652 80.9961L45.2802 81.1211L45.2952 81.2461L45.3152 81.3711L45.3352 81.4961L45.3602 81.6211L45.3852 81.7461L45.4152 81.8711L45.4452 81.9961L45.4852 82.1211L45.5302 82.2461L45.58 82.3711L45.6297 82.4961L45.6802 82.6211L45.7397 82.7461L45.7947 82.8711L45.8552 82.9961L45.8852 83.0586L45.9202 83.1211L45.9552 83.1836L45.9952 83.2461L46.0302 83.3011L46.0752 83.3711L46.1597 83.4961L46.2502 83.6211L46.2952 83.6836L46.3402 83.7461L46.3902 83.8086L46.4402 83.8711L46.4902 83.9336L46.5452 83.9961L46.6002 84.0561L46.6652 84.1211L46.725 84.1836L46.7847 84.2461L46.9072 84.3711L46.9684 84.4336L47.0352 84.4961L47.1102 84.5586L47.1902 84.6211L47.2702 84.6836L47.3552 84.7461L47.4402 84.8086L47.5302 84.8711L47.6202 84.9311L47.7247 84.9961L47.8302 85.0586L47.9402 85.1211L48.0552 85.1836L48.1802 85.2461L48.3102 85.3086L48.3802 85.3398L48.4502 85.3711L48.5252 85.4023L48.6052 85.4336L48.6902 85.4648L48.7797 85.4961L48.8752 85.5273L48.9797 85.5586L49.2028 85.6211L49.6638 85.7461L50.2165 85.8945L50.5759 85.9941L50.951 86.0937L51.4997 86.2461L94.7497 97.9961L95.7497 98.2611L96.2497 98.3961L96.7497 98.5311L97.1247 98.6386L97.4997 98.7811L97.9997 99.0411L98.2497 99.2211L98.5797 99.4961L98.7897 99.7111L99.0247 99.9961L99.1897 100.246L99.3347 100.496L99.4497 100.746L99.5447 100.996L99.6547 101.371L99.6897 101.559L99.7197 101.746L99.7447 101.996L99.7497 102.371V102.746V102.996V126.996H114.75V97.4961L114.745 97.293L114.735 97.0898L114.72 96.8867L114.695 96.6836L114.68 96.5898L114.665 96.4961L114.64 96.3711L114.61 96.2461L114.58 96.1211L114.545 95.9961L114.51 95.8711L114.465 95.7461L114.42 95.6211L114.37 95.4961L114.32 95.3711L114.26 95.2461L114.205 95.1211L114.135 94.9961L114.067 94.8711L114 94.7461L113.84 94.4961L113.75 94.3711L113.65 94.2461L113.555 94.1211L113.45 93.9961L113.335 93.8711L113.21 93.7461L113.09 93.6211L112.95 93.4961L112.795 93.3711L112.635 93.2461L112.455 93.1211L112.365 93.0586L112.265 92.9961L112.05 92.8711L111.905 92.7911L111.75 92.7111L111.625 92.6573L111.495 92.6036L111.36 92.5498L111.21 92.4961L110.97 92.4161L110.75 92.3561L110.625 92.3236L110.25 92.2211L65.7497 80.1361L64.2497 79.7261L63.2497 79.4561L62.9997 79.3911L62.7497 79.3111L62.4997 79.2061L62.2497 79.0911L62.1247 79.0211L61.9997 78.9461L61.8747 78.8661L61.7497 78.7761L61.6597 78.7061L61.5747 78.6361L61.4947 78.5661L61.4197 78.4961L61.3547 78.4336L61.2947 78.3711L61.1797 78.2461L61.0747 78.1211L60.9747 77.9961L60.8897 77.8711L60.8097 77.7461L60.7397 77.6211L60.6697 77.4961L60.6047 77.3711L60.5497 77.2461L60.4997 77.1211L60.4547 76.9961L60.4097 76.8711L60.3747 76.7461L60.3447 76.6211L60.3197 76.4961L60.2947 76.3711L60.2747 76.2461L60.2622 76.1211L60.2547 75.9961L60.2497 75.8711V75.7461L60.2497 75.6211L60.2498 75.4961L60.2499 74.9727L60.25 74.1992L60.2504 72.6523L60.2502 50.9961Z"/>
<path d="M60.2495 126.996V95.4971L56.4995 94.4971L52.7495 93.4971L48.9995 92.4971L45.2495 91.4971V126.996H60.2495Z"/>
<path d="M114.751 50.9971L99.7495 50.9971V82.4971L107.25 84.4971L114.75 86.4971L114.751 50.9971Z"/>
</mask>
<path d="M60.2502 50.9961H45.2497V78.7461L45.25 79.7461L45.2502 80.7461L45.2574 80.8711L45.2652 80.9961L45.2802 81.1211L45.2952 81.2461L45.3152 81.3711L45.3352 81.4961L45.3602 81.6211L45.3852 81.7461L45.4152 81.8711L45.4452 81.9961L45.4852 82.1211L45.5302 82.2461L45.58 82.3711L45.6297 82.4961L45.6802 82.6211L45.7397 82.7461L45.7947 82.8711L45.8552 82.9961L45.8852 83.0586L45.9202 83.1211L45.9552 83.1836L45.9952 83.2461L46.0302 83.3011L46.0752 83.3711L46.1597 83.4961L46.2502 83.6211L46.2952 83.6836L46.3402 83.7461L46.3902 83.8086L46.4402 83.8711L46.4902 83.9336L46.5452 83.9961L46.6002 84.0561L46.6652 84.1211L46.725 84.1836L46.7847 84.2461L46.9072 84.3711L46.9684 84.4336L47.0352 84.4961L47.1102 84.5586L47.1902 84.6211L47.2702 84.6836L47.3552 84.7461L47.4402 84.8086L47.5302 84.8711L47.6202 84.9311L47.7247 84.9961L47.8302 85.0586L47.9402 85.1211L48.0552 85.1836L48.1802 85.2461L48.3102 85.3086L48.3802 85.3398L48.4502 85.3711L48.5252 85.4023L48.6052 85.4336L48.6902 85.4648L48.7797 85.4961L48.8752 85.5273L48.9797 85.5586L49.2028 85.6211L49.6638 85.7461L50.2165 85.8945L50.5759 85.9941L50.951 86.0937L51.4997 86.2461L94.7497 97.9961L95.7497 98.2611L96.2497 98.3961L96.7497 98.5311L97.1247 98.6386L97.4997 98.7811L97.9997 99.0411L98.2497 99.2211L98.5797 99.4961L98.7897 99.7111L99.0247 99.9961L99.1897 100.246L99.3347 100.496L99.4497 100.746L99.5447 100.996L99.6547 101.371L99.6897 101.559L99.7197 101.746L99.7447 101.996L99.7497 102.371V102.746V102.996V126.996H114.75V97.4961L114.745 97.293L114.735 97.0898L114.72 96.8867L114.695 96.6836L114.68 96.5898L114.665 96.4961L114.64 96.3711L114.61 96.2461L114.58 96.1211L114.545 95.9961L114.51 95.8711L114.465 95.7461L114.42 95.6211L114.37 95.4961L114.32 95.3711L114.26 95.2461L114.205 95.1211L114.135 94.9961L114.067 94.8711L114 94.7461L113.84 94.4961L113.75 94.3711L113.65 94.2461L113.555 94.1211L113.45 93.9961L113.335 93.8711L113.21 93.7461L113.09 93.6211L112.95 93.4961L112.795 93.3711L112.635 93.2461L112.455 93.1211L112.365 93.0586L112.265 92.9961L112.05 92.8711L111.905 92.7911L111.75 92.7111L111.625 92.6573L111.495 92.6036L111.36 92.5498L111.21 92.4961L110.97 92.4161L110.75 92.3561L110.625 92.3236L110.25 92.2211L65.7497 80.1361L64.2497 79.7261L63.2497 79.4561L62.9997 79.3911L62.7497 79.3111L62.4997 79.2061L62.2497 79.0911L62.1247 79.0211L61.9997 78.9461L61.8747 78.8661L61.7497 78.7761L61.6597 78.7061L61.5747 78.6361L61.4947 78.5661L61.4197 78.4961L61.3547 78.4336L61.2947 78.3711L61.1797 78.2461L61.0747 78.1211L60.9747 77.9961L60.8897 77.8711L60.8097 77.7461L60.7397 77.6211L60.6697 77.4961L60.6047 77.3711L60.5497 77.2461L60.4997 77.1211L60.4547 76.9961L60.4097 76.8711L60.3747 76.7461L60.3447 76.6211L60.3197 76.4961L60.2947 76.3711L60.2747 76.2461L60.2622 76.1211L60.2547 75.9961L60.2497 75.8711V75.7461L60.2497 75.6211L60.2498 75.4961L60.2499 74.9727L60.25 74.1992L60.2504 72.6523L60.2502 50.9961Z" fill="white"/>
<path d="M60.2495 126.996V95.4971L56.4995 94.4971L52.7495 93.4971L48.9995 92.4971L45.2495 91.4971V126.996H60.2495Z" fill="white"/>
<path d="M114.751 50.9971L99.7495 50.9971V82.4971L107.25 84.4971L114.75 86.4971L114.751 50.9971Z" fill="white"/>
<path d="M60.2502 50.9961H45.2497V78.7461L45.25 79.7461L45.2502 80.7461L45.2574 80.8711L45.2652 80.9961L45.2802 81.1211L45.2952 81.2461L45.3152 81.3711L45.3352 81.4961L45.3602 81.6211L45.3852 81.7461L45.4152 81.8711L45.4452 81.9961L45.4852 82.1211L45.5302 82.2461L45.58 82.3711L45.6297 82.4961L45.6802 82.6211L45.7397 82.7461L45.7947 82.8711L45.8552 82.9961L45.8852 83.0586L45.9202 83.1211L45.9552 83.1836L45.9952 83.2461L46.0302 83.3011L46.0752 83.3711L46.1597 83.4961L46.2502 83.6211L46.2952 83.6836L46.3402 83.7461L46.3902 83.8086L46.4402 83.8711L46.4902 83.9336L46.5452 83.9961L46.6002 84.0561L46.6652 84.1211L46.725 84.1836L46.7847 84.2461L46.9072 84.3711L46.9684 84.4336L47.0352 84.4961L47.1102 84.5586L47.1902 84.6211L47.2702 84.6836L47.3552 84.7461L47.4402 84.8086L47.5302 84.8711L47.6202 84.9311L47.7247 84.9961L47.8302 85.0586L47.9402 85.1211L48.0552 85.1836L48.1802 85.2461L48.3102 85.3086L48.3802 85.3398L48.4502 85.3711L48.5252 85.4023L48.6052 85.4336L48.6902 85.4648L48.7797 85.4961L48.8752 85.5273L48.9797 85.5586L49.2028 85.6211L49.6638 85.7461L50.2165 85.8945L50.5759 85.9941L50.951 86.0937L51.4997 86.2461L94.7497 97.9961L95.7497 98.2611L96.2497 98.3961L96.7497 98.5311L97.1247 98.6386L97.4997 98.7811L97.9997 99.0411L98.2497 99.2211L98.5797 99.4961L98.7897 99.7111L99.0247 99.9961L99.1897 100.246L99.3347 100.496L99.4497 100.746L99.5447 100.996L99.6547 101.371L99.6897 101.559L99.7197 101.746L99.7447 101.996L99.7497 102.371V102.746V102.996V126.996H114.75V97.4961L114.745 97.293L114.735 97.0898L114.72 96.8867L114.695 96.6836L114.68 96.5898L114.665 96.4961L114.64 96.3711L114.61 96.2461L114.58 96.1211L114.545 95.9961L114.51 95.8711L114.465 95.7461L114.42 95.6211L114.37 95.4961L114.32 95.3711L114.26 95.2461L114.205 95.1211L114.135 94.9961L114.067 94.8711L114 94.7461L113.84 94.4961L113.75 94.3711L113.65 94.2461L113.555 94.1211L113.45 93.9961L113.335 93.8711L113.21 93.7461L113.09 93.6211L112.95 93.4961L112.795 93.3711L112.635 93.2461L112.455 93.1211L112.365 93.0586L112.265 92.9961L112.05 92.8711L111.905 92.7911L111.75 92.7111L111.625 92.6573L111.495 92.6036L111.36 92.5498L111.21 92.4961L110.97 92.4161L110.75 92.3561L110.625 92.3236L110.25 92.2211L65.7497 80.1361L64.2497 79.7261L63.2497 79.4561L62.9997 79.3911L62.7497 79.3111L62.4997 79.2061L62.2497 79.0911L62.1247 79.0211L61.9997 78.9461L61.8747 78.8661L61.7497 78.7761L61.6597 78.7061L61.5747 78.6361L61.4947 78.5661L61.4197 78.4961L61.3547 78.4336L61.2947 78.3711L61.1797 78.2461L61.0747 78.1211L60.9747 77.9961L60.8897 77.8711L60.8097 77.7461L60.7397 77.6211L60.6697 77.4961L60.6047 77.3711L60.5497 77.2461L60.4997 77.1211L60.4547 76.9961L60.4097 76.8711L60.3747 76.7461L60.3447 76.6211L60.3197 76.4961L60.2947 76.3711L60.2747 76.2461L60.2622 76.1211L60.2547 75.9961L60.2497 75.8711V75.7461L60.2497 75.6211L60.2498 75.4961L60.2499 74.9727L60.25 74.1992L60.2504 72.6523L60.2502 50.9961Z" stroke="#555353" stroke-width="0.2" mask="url(#path-3-inside-2_52_70)"/>
<path d="M60.2495 126.996V95.4971L56.4995 94.4971L52.7495 93.4971L48.9995 92.4971L45.2495 91.4971V126.996H60.2495Z" stroke="#555353" stroke-width="0.2" mask="url(#path-3-inside-2_52_70)"/>
<path d="M114.751 50.9971L99.7495 50.9971V82.4971L107.25 84.4971L114.75 86.4971L114.751 50.9971Z" stroke="#555353" stroke-width="0.2" mask="url(#path-3-inside-2_52_70)"/>
</svg>
